<svg width="12" height="16" viewBox="0 0 12 16" fill="none" xmlns="http://www.w3.org/2000/svg">
<path d="M0.5 15.1425L0 15.3539L0 2.6093C0 2.15254 0.164992 1.76139 0.494977 1.43585C0.824961 1.11031 1.22117 0.947812 1.68359 0.948364H10.1016C10.5646 0.948364 10.961 1.11114 11.291 1.43668C11.621 1.76222 11.7857 2.15309 11.7852 2.6093V15.3539L11.2852 15.1425M0.5 15.1425V15.6854L5.89258 13.4054L11.2852 15.6854V15.1425M0.5 15.1425L5.69787 12.9448L5.89258 12.8625L6.08729 12.9448L11.2852 15.1425M0.5 15.1425V2.6093C0.5 2.28854 0.609788 2.02495 0.846126 1.79179C1.08265 1.55845 1.35256 1.44797 1.683 1.44837H1.68359H10.1016C10.4329 1.44837 10.7033 1.55926 10.9399 1.79262C11.1762 2.02576 11.2856 2.28888 11.2852 2.60868V2.6093V15.1425" fill="white" stroke="#3AB170"/>
</svg>
