<svg width="62" height="62" viewBox="0 0 62 62" fill="none" xmlns="http://www.w3.org/2000/svg">
<path d="M26.66 36.58L19.995 29.915C19.4267 29.3467 18.7033 29.0625 17.825 29.0625C16.9467 29.0625 16.2233 29.3467 15.655 29.915C15.0867 30.4833 14.8025 31.2067 14.8025 32.085C14.8025 32.9633 15.0867 33.6867 15.655 34.255L24.49 43.09C25.11 43.71 25.8333 44.02 26.66 44.02C27.4867 44.02 28.21 43.71 28.83 43.09L46.345 25.575C46.9133 25.0067 47.1975 24.2833 47.1975 23.405C47.1975 22.5267 46.9133 21.8033 46.345 21.235C45.7767 20.6667 45.0533 20.3825 44.175 20.3825C43.2967 20.3825 42.5733 20.6667 42.005 21.235L26.66 36.58ZM31 62C26.7117 62 22.6817 61.1857 18.91 59.5572C15.1383 57.9287 11.8575 55.7204 9.0675 52.9325C6.2775 50.1425 4.06927 46.8617 2.4428 43.09C0.816334 39.3183 0.00206667 35.2883 0 31C0 26.7117 0.814267 22.6817 2.4428 18.91C4.07133 15.1383 6.27957 11.8575 9.0675 9.0675C11.8575 6.2775 15.1383 4.06927 18.91 2.4428C22.6817 0.816334 26.7117 0.00206667 31 0C35.2883 0 39.3183 0.814267 43.09 2.4428C46.8617 4.07133 50.1425 6.27957 52.9325 9.0675C55.7225 11.8575 57.9318 15.1383 59.5603 18.91C61.1888 22.6817 62.0021 26.7117 62 31C62 35.2883 61.1857 39.3183 59.5572 43.09C57.9287 46.8617 55.7204 50.1425 52.9325 52.9325C50.1425 55.7225 46.8617 57.9318 43.09 59.5603C39.3183 61.1888 35.2883 62.0021 31 62Z" fill="#3AB170"/>
</svg>
