<svg width="13" height="13" viewBox="0 0 13 13" fill="none" xmlns="http://www.w3.org/2000/svg">
<path d="M12.634 3.15926L9.84145 0.366277C9.72537 0.250156 9.58755 0.158041 9.43585 0.095194C9.28416 0.0323473 9.12157 0 8.95737 0C8.79318 0 8.63059 0.0323473 8.47889 0.095194C8.3272 0.158041 8.18938 0.250156 8.07329 0.366277L0.366263 8.07338C0.249762 8.18911 0.157397 8.32681 0.0945254 8.47851C0.0316537 8.63021 -0.000473952 8.79287 5.28335e-06 8.95708V11.7501C5.28335e-06 12.0816 0.131704 12.3995 0.366129 12.6339C0.600554 12.8683 0.918503 13 1.25003 13H4.04321C4.20743 13.0004 4.37009 12.9683 4.5218 12.9054C4.6735 12.8426 4.81122 12.7502 4.92698 12.6338L12.634 4.92666C12.8684 4.69227 13 4.3744 13 4.04296C13 3.71152 12.8684 3.39365 12.634 3.15926ZM3.93758 11.5001H1.50004V9.0627L6.75014 3.81297L9.18769 6.25035L3.93758 11.5001ZM10.2502 5.1879L7.81266 2.75053L8.95894 1.60434L11.3965 4.04171L10.2502 5.1879Z" fill="#888888"/>
</svg>
