<svg width="62" height="62" viewBox="0 0 62 62" fill="none" xmlns="http://www.w3.org/2000/svg">
<path d="M34.1 34.1H27.9V15.5H34.1M34.1 46.5H27.9V40.3H34.1M31 0C26.929 0 22.8979 0.801839 19.1368 2.35973C15.3757 3.91763 11.9583 6.20107 9.07969 9.07969C3.26606 14.8933 0 22.7783 0 31C0 39.2217 3.26606 47.1067 9.07969 52.9203C11.9583 55.7989 15.3757 58.0824 19.1368 59.6403C22.8979 61.1982 26.929 62 31 62C39.2217 62 47.1067 58.7339 52.9203 52.9203C58.7339 47.1067 62 39.2217 62 31C62 26.929 61.1982 22.8979 59.6403 19.1368C58.0824 15.3757 55.7989 11.9583 52.9203 9.07969C50.0417 6.20107 46.6243 3.91763 42.8632 2.35973C39.1021 0.801839 35.071 0 31 0Z" fill="#EB2A2A"/>
</svg>
