<svg width="35" height="35" viewBox="0 0 35 35" fill="none" xmlns="http://www.w3.org/2000/svg">
<path d="M19.7307 22.6522C19.534 22.8445 19.2188 22.8418 19.0254 22.646L18.4156 22.0284C18.2208 21.8312 18.2236 21.5133 18.4218 21.3195L20.5136 19.2742C20.8341 18.9608 20.6122 18.4167 20.1641 18.4167H10.5C10.2239 18.4167 10 18.1928 10 17.9167V17.0833C10 16.8072 10.2239 16.5833 10.5 16.5833H20.1641C20.6122 16.5833 20.8341 16.0392 20.5136 15.7258L18.4218 13.6805C18.2236 13.4867 18.2208 13.1688 18.4156 12.9716L19.0254 12.354C19.2188 12.1582 19.534 12.1555 19.7307 12.3478L24.6344 17.1425C24.835 17.3386 24.835 17.6614 24.6344 17.8575L19.7307 22.6522Z" fill="#3AB170"/>
<rect x="0.5" y="0.5" width="34" height="34" rx="17" stroke="#3AB170"/>
</svg>
