<svg width="35" height="35" viewBox="0 0 35 35" fill="none" xmlns="http://www.w3.org/2000/svg">
<rect x="-0.5" y="0.5" width="34" height="34" rx="17" transform="matrix(-1 0 0 1 34 0)" fill="#3AB170"/>
<path d="M15.2693 22.6522C15.466 22.8445 15.7812 22.8418 15.9746 22.646L16.5844 22.0284C16.7792 21.8312 16.7764 21.5133 16.5782 21.3195L14.4864 19.2742C14.1659 18.9608 14.3878 18.4167 14.8359 18.4167H24.5C24.7761 18.4167 25 18.1928 25 17.9167V17.0833C25 16.8072 24.7761 16.5833 24.5 16.5833H14.8359C14.3878 16.5833 14.1659 16.0392 14.4864 15.7258L16.5782 13.6805C16.7764 13.4867 16.7792 13.1688 16.5844 12.9716L15.9746 12.354C15.7812 12.1582 15.466 12.1555 15.2693 12.3478L10.3656 17.1425C10.165 17.3386 10.165 17.6614 10.3656 17.8575L15.2693 22.6522Z" fill="white"/>
<rect x="-0.5" y="0.5" width="34" height="34" rx="17" transform="matrix(-1 0 0 1 34 0)" stroke="#3AB170"/>
</svg>
