<svg width="18" height="18" viewBox="0 0 14 14" fill="#3AB170" xmlns="http://www.w3.org/2000/svg">
<path d="M9.625 8.5H9.0325L8.8225 8.2975C9.58291 7.41552 10.0008 6.28952 10 5.125C10 4.16082 9.71409 3.21829 9.17842 2.4166C8.64275 1.61491 7.88137 0.990067 6.99058 0.621089C6.09979 0.252112 5.11959 0.155571 4.17394 0.343674C3.22828 0.531777 2.35964 0.996076 1.67786 1.67786C0.996076 2.35964 0.531777 3.22828 0.343674 4.17394C0.155571 5.11959 0.252112 6.09979 0.621089 6.99058C0.990067 7.88137 1.61491 8.64275 2.4166 9.17842C3.21829 9.71409 4.16082 10 5.125 10C6.3325 10 7.4425 9.5575 8.2975 8.8225L8.5 9.0325V9.625L12.25 13.3675L13.3675 12.25L9.625 8.5ZM5.125 8.5C3.2575 8.5 1.75 6.9925 1.75 5.125C1.75 3.2575 3.2575 1.75 5.125 1.75C6.9925 1.75 8.5 3.2575 8.5 5.125C8.5 6.9925 6.9925 8.5 5.125 8.5Z" fill="#3AB170"/>
</svg>
