<svg width="30" height="30" viewBox="0 0 30 30" fill="none" xmlns="http://www.w3.org/2000/svg">
<path d="M21.4574 7.12514C21.5928 7.1254 21.7233 7.07301 21.8233 6.9783C21.9233 6.88359 21.9856 6.75341 21.9978 6.6134C22.01 6.4734 21.9713 6.33371 21.8894 6.22184C21.8074 6.10998 21.6881 6.03405 21.5549 6.009L21.4574 6H9.54258C9.40724 5.99974 9.27672 6.05213 9.17671 6.14684C9.07669 6.24155 9.01444 6.37173 9.00222 6.51174C8.98999 6.65175 9.02867 6.79144 9.11064 6.9033C9.19261 7.01516 9.31192 7.09109 9.4451 7.11614L9.54258 7.12514H21.4574ZM15.5 24C15.6268 24 15.7495 23.9539 15.8469 23.8696C15.9443 23.7853 16.0101 23.6682 16.0329 23.5387L16.0416 23.4374L16.0373 10.1675L19.9854 14.272C20.0749 14.3654 20.1931 14.4232 20.3193 14.4353C20.4456 14.4474 20.572 14.4132 20.6765 14.3384L20.7523 14.2732C20.842 14.1801 20.8974 14.0572 20.9089 13.9261C20.9204 13.7949 20.8872 13.6637 20.8151 13.5553L20.7523 13.4766L15.8867 8.41343C15.8112 8.33518 15.7151 8.28193 15.6105 8.26041L15.4957 8.24803C15.413 8.24802 15.3315 8.26769 15.2573 8.30553C15.1832 8.34337 15.1183 8.39837 15.0678 8.46631L10.2401 13.4766C10.1452 13.5759 10.0894 13.7085 10.0836 13.8483C10.0777 13.9881 10.1222 14.1252 10.2084 14.2327C10.2947 14.3403 10.4164 14.4106 10.5498 14.4299C10.6833 14.4493 10.8189 14.4162 10.9301 14.3373L11.0059 14.2732L14.9541 10.1765L14.9584 23.4374C14.9584 23.5866 15.0155 23.7297 15.117 23.8352C15.2186 23.9407 15.3564 24 15.5 24Z" fill="#3AB170"/>
<rect x="0.15" y="0.15" width="29.7" height="29.7" rx="14.85" stroke="#3AB170" stroke-width="0.3"/>
</svg>
