<svg width="13" height="9" viewBox="0 0 13 9" fill="none" xmlns="http://www.w3.org/2000/svg">
<path d="M6.5 2.65909C6.02984 2.65909 5.57894 2.84586 5.24649 3.17831C4.91404 3.51076 4.72727 3.96166 4.72727 4.43182C4.72727 4.90197 4.91404 5.35287 5.24649 5.68533C5.57894 6.01778 6.02984 6.20455 6.5 6.20455C6.97016 6.20455 7.42106 6.01778 7.75351 5.68533C8.08596 5.35287 8.27273 4.90197 8.27273 4.43182C8.27273 3.96166 8.08596 3.51076 7.75351 3.17831C7.42106 2.84586 6.97016 2.65909 6.5 2.65909ZM6.5 7.38636C5.71641 7.38636 4.96491 7.07508 4.41082 6.521C3.85674 5.96691 3.54545 5.21541 3.54545 4.43182C3.54545 3.64822 3.85674 2.89672 4.41082 2.34264C4.96491 1.78855 5.71641 1.47727 6.5 1.47727C7.28359 1.47727 8.03509 1.78855 8.58918 2.34264C9.14326 2.89672 9.45455 3.64822 9.45455 4.43182C9.45455 5.21541 9.14326 5.96691 8.58918 6.521C8.03509 7.07508 7.28359 7.38636 6.5 7.38636ZM6.5 0C3.54545 0 1.02227 1.83773 0 4.43182C1.02227 7.02591 3.54545 8.86364 6.5 8.86364C9.45455 8.86364 11.9777 7.02591 13 4.43182C11.9777 1.83773 9.45455 0 6.5 0Z" fill="#888888"/>
</svg>
